<?xml version="1.0" standalone="no"?>
<!DOCTYPE svg PUBLIC "-//W3C//DTD SVG 20010904//EN"
 "http://www.w3.org/TR/2001/REC-SVG-20010904/DTD/svg10.dtd">
<svg version="1.0" xmlns="http://www.w3.org/2000/svg"
 width="500.000000pt" height="500.000000pt" viewBox="0 0 500.000000 500.000000"
 preserveAspectRatio="xMidYMid meet">
<metadata>
Created by potrace 1.14, written by Peter Selinger 2001-2017
</metadata>
<g transform="translate(0.000000,500.000000) scale(0.100000,-0.100000)"
fill="#000000" stroke="none">
<path d="M0 2500 l0 -2500 2500 0 2500 0 0 461 c0 435 -1 461 -18 454 -9 -4
-25 -7 -34 -7 -10 0 -20 -3 -23 -9 -8 -12 -65 -12 -65 1 0 6 17 10 38 10 28 0
33 3 22 11 -13 9 -13 10 0 8 33 -3 44 1 33 12 -6 6 -8 19 -6 30 4 14 9 16 23
9 25 -13 30 -13 30 4 0 8 -13 16 -29 18 -17 2 -28 1 -26 -3 3 -4 -2 -10 -11
-13 -10 -4 -13 -13 -9 -26 5 -15 2 -20 -14 -20 -11 0 -23 -5 -26 -10 -8 -13
-52 -13 -60 0 -9 15 -25 12 -25 -5 0 -8 7 -15 15 -15 8 0 15 -4 15 -10 0 -5
-6 -10 -12 -10 -20 1 -45 24 -41 38 6 15 -4 16 -21 0 -11 -11 -11 -15 2 -24 9
-6 13 -18 9 -28 -6 -16 -8 -16 -32 0 -14 9 -28 14 -32 10 -3 -3 -1 -6 5 -6 7
0 12 -6 12 -13 0 -8 12 -13 32 -13 18 1 33 -5 36 -13 3 -10 -3 -12 -26 -6 -24
5 -33 2 -41 -14 -6 -10 -25 -22 -42 -26 -23 -5 -30 -11 -26 -25 3 -13 0 -16
-14 -13 -12 3 -19 14 -19 29 0 13 -4 24 -10 24 -14 0 -13 -43 2 -58 9 -9 4
-12 -22 -11 -19 1 -27 3 -18 6 10 3 15 10 11 19 -4 12 -8 13 -14 3 -5 -9 -16
-5 -42 17 -36 29 -47 54 -25 54 6 0 8 3 5 6 -4 4 -18 -1 -31 -10 -14 -8 -28
-12 -31 -7 -3 5 4 12 15 16 23 7 27 25 5 25 -8 0 -26 -5 -40 -12 -24 -11 -25
-13 -8 -20 12 -5 8 -6 -12 -2 -16 3 -34 6 -40 7 -5 1 -11 -8 -13 -20 -2 -12
-10 -27 -17 -33 -12 -10 -16 -5 -21 29 -4 23 -11 44 -16 47 -5 3 -6 22 -4 42
3 20 3 28 -1 17 -4 -13 -13 7 -29 63 -13 46 -35 104 -49 130 -30 56 -114 175
-152 217 -16 17 -41 47 -57 68 -16 20 -36 37 -45 37 -9 0 -47 20 -84 45 -84
56 -219 117 -340 151 -110 32 -168 57 -200 90 -27 27 -131 80 -167 85 -23 4
-24 2 -22 -37 3 -32 -5 -59 -34 -115 -20 -41 -45 -90 -54 -109 -10 -19 -44
-62 -76 -94 -54 -56 -58 -58 -65 -38 -5 12 -13 22 -19 22 -7 0 -9 8 -5 20 4
12 2 20 -5 20 -8 0 -7 8 4 25 15 23 15 26 -3 44 -20 20 -20 20 17 23 l37 3
-32 18 c-23 12 -33 24 -32 40 1 17 2 18 6 4 2 -9 9 -15 14 -12 5 4 9 1 9 -6 0
-8 4 -8 16 2 10 8 13 21 9 38 -6 22 -5 23 11 10 9 -8 18 -12 18 -10 1 3 9 0
18 -5 16 -9 15 -12 -8 -38 -19 -20 -23 -31 -15 -39 8 -8 11 -8 11 1 0 9 5 10
19 2 28 -14 41 -12 35 5 -4 11 -2 13 9 10 24 -10 29 53 4 70 -26 18 -14 33 20
28 20 -3 24 -2 14 5 -7 5 -11 18 -7 28 6 20 -6 48 -19 42 -4 -1 -11 6 -15 18
-6 15 -4 21 6 21 8 0 14 -4 14 -9 0 -4 5 -8 10 -8 6 0 2 12 -7 27 -10 15 -12
24 -5 20 7 -5 12 -3 12 7 0 9 5 16 10 16 6 0 10 -4 10 -10 0 -23 15 -8 17 17
0 15 8 32 17 39 19 13 29 71 15 79 -14 9 -11 25 6 25 17 0 21 25 5 35 -5 3 -7
12 -3 20 3 9 1 21 -5 28 -6 7 -13 34 -16 61 -5 43 -3 50 19 68 36 28 31 38
-22 38 -45 1 -50 4 -82 45 -18 25 -37 45 -42 45 -5 0 -9 6 -9 13 0 6 -21 39
-48 72 l-47 59 -5 -114 -5 -115 -47 -3 -48 -3 0 200 0 201 49 0 c52 0 55 -2
121 -90 55 -72 104 -130 112 -130 4 0 8 50 8 110 l0 110 50 0 50 0 0 -107 c0
-60 4 -112 8 -118 4 -5 26 -11 50 -13 l42 -3 0 120 0 121 50 0 50 0 0 -75 c0
-41 3 -75 8 -75 4 1 32 34 62 75 l55 74 67 1 c56 0 66 -3 62 -15 -4 -8 -3 -15
0 -15 13 0 71 46 130 104 34 32 86 71 116 86 35 18 62 40 74 62 11 18 32 49
48 69 15 20 28 44 28 52 0 8 5 17 11 19 6 2 17 29 24 60 18 80 2 203 -32 235
-13 12 -23 28 -23 35 0 8 -13 29 -28 48 -33 41 -61 130 -55 180 2 19 5 51 6
70 2 20 11 47 20 60 12 17 17 44 17 86 0 60 23 129 39 119 13 -8 38 28 46 65
14 75 7 146 -22 209 -17 36 -23 63 -19 82 6 33 -11 79 -29 79 -7 0 -20 9 -30
20 -10 11 -28 20 -40 20 -20 0 -23 7 -29 58 -4 31 -8 68 -10 81 -1 13 -9 27
-18 32 -12 7 -15 2 -13 -29 1 -20 5 -51 9 -69 4 -19 3 -34 -4 -38 -6 -4 -8
-15 -5 -26 5 -15 1 -19 -14 -19 -12 0 -21 -7 -21 -15 0 -8 -10 -29 -23 -48
-20 -29 -26 -33 -47 -25 -47 17 -59 36 -48 75 5 19 8 36 6 37 -84 50 -100 74
-75 107 13 17 67 31 67 18 0 -5 9 -9 20 -9 11 0 20 -6 20 -12 0 -15 39 32 40
47 0 6 -14 16 -30 23 -17 8 -30 21 -30 29 0 17 -38 56 -65 67 -14 5 -17 14
-12 46 3 22 1 40 -3 40 -5 0 -10 12 -12 26 -4 36 -31 53 -58 36 -23 -14 -40
-8 -40 13 0 7 -9 17 -20 20 -11 3 -20 14 -20 24 0 24 -52 60 -87 61 -76 2
-122 -16 -167 -63 -24 -26 -47 -47 -50 -47 -4 0 -26 -19 -50 -42 -33 -33 -51
-43 -77 -44 -79 -1 -132 -26 -89 -42 21 -8 21 -9 5 -15 -24 -10 -45 10 -46 42
l-1 26 -7 -25 c-5 -16 -13 -24 -24 -22 -9 2 -17 -2 -17 -8 0 -5 -7 -10 -16
-10 -12 0 -14 -3 -6 -12 5 -7 12 -24 14 -37 2 -21 -3 -26 -31 -33 -28 -8 -38
-6 -54 10 -19 19 -19 20 5 46 12 15 26 38 30 52 5 20 3 24 -17 24 -15 0 -25
-7 -28 -21 -4 -15 -11 -19 -25 -14 -29 8 -37 -11 -17 -41 16 -24 15 -27 -1
-45 -9 -10 -20 -19 -23 -19 -3 0 -26 19 -50 42 -25 22 -56 44 -70 48 -26 8
-26 8 11 24 20 8 39 20 42 25 7 10 31 9 42 -2 15 -15 41 -6 53 17 12 22 61 43
61 26 0 -14 53 -22 61 -9 6 10 11 10 24 -1 14 -12 18 -12 26 1 6 10 9 11 9 1
0 -7 5 -10 10 -7 26 16 -20 78 -52 71 -10 -2 -41 2 -70 9 -29 7 -47 14 -40 15
13 3 28 6 40 10 4 1 -4 5 -18 9 -26 7 -124 -10 -157 -27 -11 -6 -34 -27 -51
-47 -20 -21 -40 -35 -55 -35 -14 0 -39 -15 -59 -35 -32 -30 -41 -33 -72 -28
-30 5 -42 1 -61 -17 -34 -32 -74 -30 -124 7 -48 35 -72 34 -92 -5 -18 -37 -44
-72 -106 -144 -51 -58 -53 -63 -53 -118 0 -32 7 -74 15 -93 8 -20 15 -41 15
-47 0 -16 -72 -42 -100 -34 -14 3 -40 8 -59 10 -36 3 -56 14 -27 14 9 0 14 5
11 10 -14 22 -63 10 -98 -25 -22 -22 -45 -35 -60 -35 -14 0 -28 -4 -31 -8 -11
-18 -86 2 -86 23 0 8 -11 31 -25 51 -14 21 -23 44 -21 51 7 18 -54 62 -95 69
-19 3 -44 10 -56 16 -18 9 -27 8 -41 -5 -10 -10 -30 -17 -43 -17 -14 0 -49
-16 -79 -35 -30 -19 -64 -35 -75 -35 -23 0 -55 46 -55 79 0 23 -48 63 -83 68
-84 12 -125 25 -130 42 -6 25 -63 32 -155 21 -87 -11 -107 -25 -116 -80 -6
-37 -8 -40 -39 -39 -30 2 -30 2 -4 6 15 2 27 9 27 15 0 5 -7 8 -15 4 -17 -6
-20 15 -4 31 18 18 -15 23 -46 7 -15 -8 -31 -11 -36 -8 -11 6 -24 -24 -28 -68
-1 -5 -20 -22 -43 -39 -24 -18 -35 -29 -25 -26 16 6 16 5 0 -19 -11 -17 -13
-28 -6 -32 6 -4 13 -16 17 -27 3 -11 19 -26 36 -32 28 -11 30 -15 30 -63 0
-29 8 -68 17 -88 13 -27 14 -37 5 -40 -9 -3 -10 -8 -3 -16 6 -7 13 -52 15
-101 4 -73 9 -92 27 -111 12 -13 33 -24 46 -24 20 0 23 -5 23 -34 0 -19 4 -37
9 -40 5 -3 7 -14 5 -24 -3 -10 11 -34 32 -57 34 -38 35 -43 30 -92 -7 -57 -6
-59 24 -40 15 8 23 9 28 1 4 -6 14 -14 22 -17 11 -4 11 -6 -4 -6 -12 -1 -16
-6 -12 -17 3 -9 6 -23 6 -31 0 -11 7 -14 28 -9 26 6 26 6 7 -9 -17 -14 -18
-17 -5 -25 8 -5 21 -10 29 -10 11 0 11 -3 1 -15 -10 -12 -10 -15 2 -15 17 0
40 -57 26 -66 -12 -8 -8 -124 6 -147 15 -25 -24 -57 -70 -57 -33 0 -73 -32
-153 -123 -24 -27 -22 -203 2 -237 9 -13 17 -41 17 -62 0 -24 11 -54 31 -87
29 -47 33 -49 46 -33 11 13 16 14 20 4 3 -7 16 -26 30 -43 18 -21 24 -37 20
-55 -5 -28 21 -64 47 -64 12 0 12 7 4 37 -5 21 -16 49 -24 63 -18 34 -64 151
-64 164 0 11 79 12 105 3 6 -3 19 -29 29 -59 9 -29 29 -79 44 -112 l27 -58 45
113 45 114 58 3 c31 2 57 1 57 -1 0 -3 -21 -54 -46 -113 -25 -60 -61 -148 -82
-196 l-36 -88 -42 0 c-31 0 -45 5 -55 21 -14 20 -15 17 -28 -41 -11 -48 -12
-101 -5 -248 9 -179 10 -187 29 -184 11 2 27 13 36 24 15 19 17 19 30 4 8 -9
22 -26 33 -36 10 -10 24 -29 30 -42 7 -14 21 -23 35 -23 12 0 28 -7 34 -15 16
-21 116 -21 138 0 8 8 22 35 29 59 11 34 16 40 20 25 3 -11 17 -36 33 -55 15
-20 27 -45 27 -56 0 -12 7 -24 16 -27 12 -5 14 -13 9 -34 -4 -15 -8 -34 -10
-42 -2 -8 -10 -35 -19 -60 -9 -25 -16 -56 -16 -70 0 -21 -14 -32 -95 -75 -52
-27 -104 -58 -114 -70 -46 -47 -66 -71 -68 -78 -1 -4 -12 -24 -25 -44 -67
-105 -79 -128 -94 -176 -9 -29 -19 -61 -24 -72 -17 -42 -40 -125 -40 -145 0
-11 -8 -24 -17 -27 -22 -8 -43 -28 -43 -41 0 -5 -7 -15 -15 -22 -19 -15 -10
-31 13 -24 13 5 14 4 3 -4 -7 -5 -11 -14 -7 -20 4 -6 -2 -8 -14 -5 -10 3 -18
10 -17 15 4 20 -20 19 -26 -1 -3 -14 -11 -18 -26 -14 -24 6 -29 33 -6 33 8 0
15 5 15 10 0 6 15 10 33 10 24 0 28 3 17 10 -13 9 -13 10 0 10 9 0 16 8 16 18
0 14 -7 16 -41 13 -39 -5 -39 -5 -10 -12 24 -5 26 -7 7 -8 -12 0 -33 -8 -46
-16 -21 -14 -24 -14 -29 0 -7 17 -37 21 -37 5 0 -5 5 -10 10 -10 6 0 10 -9 10
-20 0 -14 -5 -18 -17 -13 -11 4 -14 3 -9 -5 5 -8 0 -12 -14 -12 -19 0 -21 5
-19 47 3 36 0 48 -11 48 -9 0 -14 12 -14 35 -1 37 -10 52 -39 63 -10 4 -15 11
-12 17 3 5 0 10 -9 10 -8 0 -17 -6 -19 -12 -4 -10 -8 -9 -16 2 -9 13 -11 13
-11 -2 0 -10 -4 -18 -10 -18 -5 0 -10 7 -10 15 0 7 -8 19 -17 24 -16 9 -16 10
-1 11 11 0 15 6 11 20 -7 25 -19 26 -32 1 -7 -13 -18 -17 -36 -14 -13 3 -22 9
-19 14 3 5 -4 9 -15 9 -20 0 -29 14 -13 23 4 2 1 2 -7 0 -8 -2 -24 6 -37 18
-23 22 -22 47 3 62 24 15 13 26 -33 33 -36 5 -43 9 -30 16 20 11 21 28 1 28
-8 0 -15 7 -15 15 0 9 -9 15 -25 15 -18 0 -23 4 -18 16 3 9 9 12 12 6 3 -5 16
-11 28 -14 16 -4 20 -2 16 8 -3 8 -9 14 -14 14 -15 0 -10 27 6 34 19 7 19 26
0 26 -8 0 -15 -6 -15 -14 0 -8 -7 -16 -15 -20 -10 -4 -15 1 -15 15 0 11 -4 18
-9 14 -5 -3 -13 0 -17 6 -4 8 -3 9 4 5 8 -5 12 0 12 13 0 12 -4 21 -10 21 -18
0 -11 29 10 40 27 14 25 28 -5 42 -30 14 -31 19 -4 36 17 11 24 11 42 -1 19
-12 24 -12 36 0 16 18 8 27 -27 28 -22 0 -27 5 -28 25 0 16 -5 24 -15 22 -7
-2 -22 -4 -31 -5 -12 -1 -14 -5 -7 -13 6 -8 4 -14 -7 -18 -9 -4 -18 -5 -18 -4
-1 2 0 47 2 101 4 89 14 122 25 80 4 -17 5 -17 6 0 0 10 -6 25 -14 33 -8 9
-15 20 -15 25 0 11 27 12 33 2 2 -5 2 -2 0 5 -1 7 2 22 7 33 8 15 8 19 -2 17
-8 -2 -13 6 -12 20 0 12 -4 22 -9 22 -5 0 -7 -15 -4 -35 4 -24 2 -35 -6 -35
-8 0 -11 20 -10 62 1 51 5 62 17 60 11 -2 16 5 16 23 0 14 -4 25 -10 25 -5 0
-10 -7 -10 -15 0 -8 -3 -15 -7 -15 -5 0 -8 377 -7 838 1 1060 2 1138 13 1127
5 -6 11 -28 14 -50 2 -27 4 -19 5 27 2 61 4 66 22 61 22 -6 43 28 22 35 -7 2
-12 14 -12 28 0 21 3 23 33 18 l32 -5 -25 22 -25 22 30 -6 c17 -3 25 -4 18 -1
-7 3 -10 11 -7 17 5 14 -31 57 -46 57 -5 0 -7 7 -4 15 4 8 15 15 25 15 10 0
19 5 19 10 0 6 -12 10 -26 10 -14 0 -23 4 -20 9 4 5 22 8 41 7 19 -2 37 2 40
8 3 8 7 7 11 -1 3 -7 13 -13 22 -13 15 1 14 3 -2 15 -19 14 -19 15 -1 15 10 0
16 3 12 6 -3 3 -22 0 -43 -8 -29 -10 -38 -10 -41 0 -3 6 -9 12 -14 12 -6 0 -7
-4 -4 -10 3 -6 -1 -7 -10 -3 -13 4 -14 8 -4 13 7 5 12 22 11 40 -1 27 2 30 21
26 12 -3 16 -3 9 0 -10 5 -10 9 0 22 10 12 10 16 0 19 -22 8 -14 43 11 44 21
1 21 1 -3 9 l-25 7 25 11 25 11 -24 0 c-23 1 -24 2 -6 21 10 11 23 17 29 14 6
-3 3 1 -7 9 -20 17 -22 33 -4 41 6 3 2 3 -10 0 -28 -7 -30 7 -3 24 24 15 27
44 4 35 -12 -4 -15 -2 -12 8 2 8 14 15 26 17 19 3 20 0 12 -27 -6 -22 -5 -33
6 -42 11 -9 14 -8 14 5 0 9 6 16 14 16 8 0 13 -7 12 -16 0 -9 4 -19 10 -21 7
-2 11 6 10 22 -1 19 -6 25 -24 25 -27 0 -27 24 2 53 15 16 20 17 27 6 12 -20
11 -2 -1 22 -6 10 -17 19 -25 19 -9 0 -12 6 -8 16 3 8 12 13 19 10 7 -3 16 -1
19 4 4 6 2 10 -4 10 -23 0 2 29 27 32 15 2 27 8 28 13 2 23 17 44 27 38 6 -3
2 6 -9 20 -10 15 -26 27 -34 28 -8 0 -4 4 10 8 18 5 27 3 31 -8 4 -11 7 -7 11
12 5 24 3 27 -16 22 -19 -5 -19 -5 -3 5 24 15 40 3 33 -26 -4 -14 -2 -24 4
-24 17 0 23 29 12 55 -9 20 -9 23 3 18 11 -4 15 3 15 26 0 31 14 42 23 19 4
-10 6 -10 6 0 1 6 7 12 15 12 17 0 48 39 40 52 -8 13 -17 10 -46 -17 -31 -28
-53 -33 -44 -9 4 11 -1 18 -14 21 -19 5 -19 6 6 19 15 8 32 14 38 13 25 -3 37
2 30 12 -3 6 -16 8 -29 5 -15 -4 -25 -1 -28 8 -7 18 26 27 65 19 29 -6 48 7
48 32 -1 6 -5 2 -11 -7 -12 -22 -31 -24 -23 -3 5 13 -24 15 -225 15 l-231 0 0
-2500z m293 2333 c-7 -2 -19 -2 -25 0 -7 3 -2 5 12 5 14 0 19 -2 13 -5z m-33
-19 c0 -3 -7 -12 -15 -20 -16 -17 -18 -14 -9 10 6 15 24 23 24 10z m80 -4 c0
-5 -7 -10 -16 -10 -8 0 -12 5 -9 10 3 6 10 10 16 10 5 0 9 -4 9 -10z m2480 -9
c0 -10 -26 -9 -36 2 -4 4 2 7 14 7 12 0 22 -4 22 -9z m50 -1 c0 -5 -5 -10 -11
-10 -5 0 -7 5 -4 10 3 6 8 10 11 10 2 0 4 -4 4 -10z m-2610 -34 c0 -2 -7 -7
-16 -10 -8 -3 -12 -2 -9 4 6 10 25 14 25 6z m0 -80 c0 -7 -6 -19 -14 -25 -11
-9 -13 -6 -13 14 0 15 5 25 13 25 8 0 14 -6 14 -14z m3243 -10 c13 4 17 1 17
-15 0 -12 6 -21 15 -21 8 0 15 -7 15 -15 0 -8 -9 -15 -20 -15 -11 0 -20 5 -20
10 0 6 -7 10 -15 10 -8 0 -15 6 -15 14 0 8 -3 23 -6 33 -4 13 -3 14 3 5 5 -7
17 -10 26 -6z m-3303 -3 c-8 -4 -20 -13 -27 -22 -11 -15 -12 -15 -13 0 0 21 9
29 34 28 15 0 17 -2 6 -6z m2730 -8 c0 -8 6 -15 13 -15 16 0 43 -47 34 -57 -4
-3 -28 -2 -54 3 -45 9 -47 11 -51 47 -3 35 -2 37 27 37 21 0 31 -5 31 -15z
m720 -15 c0 -5 -2 -10 -4 -10 -3 0 -8 5 -11 10 -3 6 -1 10 4 10 6 0 11 -4 11
-10z m-3443 -56 c-3 -3 -12 -4 -19 -1 -8 3 -5 6 6 6 11 1 17 -2 13 -5z m3199
-17 c17 6 19 -8 2 -25 -17 -17 -37 4 -30 31 5 17 7 18 10 5 2 -10 9 -15 18
-11z m254 13 c0 -5 -10 -10 -22 -10 -19 0 -20 2 -8 10 19 13 30 13 30 0z
m-420 -16 c0 -8 4 -13 9 -9 6 3 27 0 49 -7 34 -10 42 -20 64 -67 17 -38 24
-67 21 -92 -4 -33 -1 -39 50 -83 47 -40 55 -51 54 -80 -1 -41 17 -66 48 -66
26 0 35 -16 28 -52 -6 -34 15 -46 33 -19 11 15 22 19 38 15 17 -4 28 0 37 14
13 18 74 38 63 21 -3 -5 0 -9 6 -9 24 0 3 -24 -31 -35 -25 -9 -34 -18 -33 -34
0 -14 -5 -21 -19 -21 -15 0 -18 -5 -14 -22 4 -12 2 -27 -4 -34 -7 -8 -7 -14 1
-19 5 -3 10 -16 9 -28 0 -16 -2 -18 -7 -7 -14 32 -38 58 -56 61 -11 2 -24 17
-29 34 -5 17 -16 37 -24 47 -14 15 -20 36 -22 66 -1 8 -13 26 -28 41 -36 35
-85 125 -75 137 4 4 0 3 -9 -3 -20 -16 -56 -6 -88 26 -20 20 -37 26 -76 28
-27 1 -51 7 -53 13 -2 5 -10 10 -18 10 -8 0 -33 9 -57 19 -23 10 -51 22 -61
25 -33 11 -12 16 83 19 92 4 93 3 113 -24 20 -26 50 -47 46 -31 -1 4 2 18 6
30 6 18 2 30 -15 48 -12 13 -28 24 -34 24 -7 0 -10 10 -8 24 3 13 0 27 -6 30
-14 9 -14 26 -1 26 6 0 10 -7 10 -16z m470 -15 c0 -5 -4 -9 -10 -9 -5 0 -10 7
-10 16 0 8 5 12 10 9 6 -3 10 -10 10 -16z m-1070 -3 c0 -3 -4 -8 -10 -11 -5
-3 -10 -1 -10 4 0 6 5 11 10 11 6 0 10 -2 10 -4z m775 -86 c-3 -5 -12 -10 -18
-10 -7 0 -6 4 3 10 19 12 23 12 15 0z m-415 -25 c-14 -16 -40 -20 -40 -6 0 10
17 19 39 20 11 1 11 -2 1 -14z m-175 -51 c27 5 35 4 35 -8 0 -19 -34 -30 -57
-17 -10 5 -26 12 -36 15 -10 3 -15 11 -12 16 5 8 11 7 21 -1 8 -7 27 -9 49 -5z
m737 -26 c-7 -7 -12 -8 -12 -2 0 6 3 14 7 17 3 4 9 5 12 2 2 -3 -1 -11 -7 -17z
m-1188 -31 c8 -55 5 -81 -7 -89 -19 -12 -30 -9 -19 5 9 10 4 16 -23 26 -44 15
-48 39 -11 73 35 32 54 27 60 -15z m330 19 c-3 -14 -1 -33 5 -43 6 -10 11 -12
11 -5 0 18 81 15 109 -4 18 -13 25 -14 34 -4 9 10 9 14 0 17 -18 7 -16 23 3
23 8 0 29 -14 46 -30 23 -24 29 -36 24 -55 -7 -29 8 -33 36 -8 17 15 18 15 17
-8 0 -13 -3 -18 -6 -11 -4 10 -10 7 -21 -9 -15 -21 -16 -21 -29 -3 -14 18 -15
18 -27 1 -13 -17 -14 -17 -18 1 -9 32 -44 33 -78 2 -18 -16 -38 -26 -46 -23
-8 3 -21 0 -29 -7 -19 -16 -20 -15 -31 39 -8 40 -12 45 -49 56 -25 7 -54 8
-79 3 -21 -5 -46 -6 -56 -3 -11 3 -20 0 -24 -10 -7 -18 -26 -20 -26 -2 1 25
31 51 62 53 18 1 34 7 36 13 6 17 52 13 52 -4 0 -29 44 -17 58 15 16 36 35 40
26 6z m-2589 4 c3 -5 2 -10 -4 -10 -5 0 -13 5 -16 10 -3 6 -2 10 4 10 5 0 13
-4 16 -10z m3073 -33 c-6 -38 -28 -31 -28 8 0 33 2 36 15 25 9 -7 15 -22 13
-33z m-761 -43 c-3 -3 -12 -4 -19 -1 -8 3 -5 6 6 6 11 1 17 -2 13 -5z m722 -3
c8 -5 12 -19 9 -35 -3 -14 0 -27 6 -29 6 -2 8 -7 5 -10 -3 -4 -22 10 -43 30
-27 27 -34 38 -24 44 17 11 30 11 47 0z m193 -32 c-6 -25 8 -59 25 -59 14 0
14 2 -3 14 -28 21 -6 43 26 26 17 -9 19 -14 10 -20 -7 -4 -9 -13 -6 -19 9 -14
-28 -15 -54 -1 -19 10 -35 55 -24 71 8 14 30 4 26 -12z m266 -47 c6 -9 12 -28
12 -44 0 -21 -5 -28 -20 -28 -14 0 -20 7 -20 23 0 12 -9 30 -20 40 -12 10 -18
21 -15 26 7 13 48 1 63 -17z m-333 8 c3 -5 -1 -10 -10 -10 -9 0 -13 5 -10 10
3 6 8 10 10 10 2 0 7 -4 10 -10z m175 -14 c0 0 4 -16 9 -33 9 -30 8 -32 -11
-30 -25 4 -36 22 -30 52 2 15 9 22 18 18 8 -3 14 -6 14 -7z m-383 -78 c-3 -8
-6 -5 -6 6 -1 11 2 17 5 13 3 -3 4 -12 1 -19z m-22 -37 c3 -5 1 -12 -5 -16 -5
-3 -10 1 -10 9 0 18 6 21 15 7z m-257 -19 c2 -7 -3 -12 -12 -12 -9 0 -16 7
-16 16 0 17 22 14 28 -4z m592 -92 c0 -5 -5 -10 -11 -10 -5 0 -7 5 -4 10 3 6
8 10 11 10 2 0 4 -4 4 -10z m-3346 -105 c3 -8 1 -15 -4 -15 -6 0 -10 7 -10 15
0 8 2 15 4 15 2 0 6 -7 10 -15z m2406 -46 c0 -11 -4 -17 -10 -14 -5 3 -10 13
-10 21 0 8 5 14 10 14 6 0 10 -9 10 -21z m21 -60 c15 -25 10 -49 -10 -49 -11
0 -22 -4 -25 -9 -3 -4 -17 -6 -32 -3 -22 4 -25 8 -19 31 3 14 12 31 20 37 19
14 54 11 66 -7z m24 11 c3 -5 1 -10 -4 -10 -6 0 -11 5 -11 10 0 6 2 10 4 10 3
0 8 -4 11 -10z m193 -53 c32 -36 49 -119 22 -102 -5 3 -18 1 -29 -4 -14 -8
-22 -7 -31 4 -6 7 -17 12 -24 9 -19 -7 -46 23 -46 52 0 23 -20 54 -34 54 -14
0 -5 -30 11 -39 10 -5 15 -13 11 -16 -4 -4 -23 5 -42 20 -31 23 -34 29 -23 46
12 20 27 25 27 10 0 -5 13 -9 28 -9 15 1 38 -4 50 -11 18 -10 22 -9 22 3 0 8
8 19 18 25 13 8 18 6 21 -7 1 -9 10 -25 19 -35z m252 -397 c0 -5 -9 -10 -21
-10 -11 0 -17 5 -14 10 3 6 13 10 21 10 8 0 14 -4 14 -10z m-1552 -702 l-3
-43 -62 -3 c-62 -3 -63 -3 -63 -32 0 -28 1 -29 58 -32 l57 -3 0 -40 0 -40 -57
-3 -58 -3 0 -34 0 -34 63 -3 62 -3 0 -40 0 -40 -112 -3 -113 -3 0 201 0 200
116 0 115 0 -3 -42z m320 17 c27 -22 36 -42 47 -95 5 -28 -23 -79 -54 -98
l-31 -19 55 -73 c30 -40 55 -77 55 -82 0 -5 -28 -8 -62 -6 l-62 3 -40 67 c-23
37 -44 68 -48 68 -5 0 -8 -31 -8 -70 l0 -70 -50 0 -50 0 0 200 0 200 109 0
c102 0 111 -2 139 -25z m377 -2 c-5 -65 -3 -63 -47 -63 l-43 0 0 -152 0 -153
-50 0 -50 0 -3 153 -3 152 -39 0 -40 0 0 45 0 45 139 0 138 0 -2 -27z m155
-48 l0 -75 75 0 75 0 0 75 0 75 50 0 50 0 0 -200 0 -200 -50 0 -50 0 0 85 0
85 -75 0 c-53 0 -75 -4 -76 -12 0 -7 -2 -44 -2 -83 l-2 -70 -50 0 -50 0 -3
198 -2 197 55 0 55 0 0 -75z m458 -122 l-3 -198 -52 -3 -53 -3 0 200 0 201 55
0 55 0 -2 -197z m280 -168 c0 -13 -4 -23 -8 -20 -4 3 -13 -9 -20 -25 -7 -17
-17 -30 -22 -30 -5 0 -2 10 6 22 9 12 16 35 16 50 0 17 5 28 14 28 8 0 14 -10
14 -25z m66 -170 c3 -8 1 -15 -4 -15 -6 0 -10 7 -10 15 0 8 2 15 4 15 2 0 6
-7 10 -15z m-36 -317 c-5 -15 -23 -11 -26 6 -2 11 2 14 13 10 9 -4 14 -11 13
-16z m-2918 -368 c0 -5 -4 -10 -10 -10 -5 0 -10 5 -10 10 0 6 5 10 10 10 6 0
10 -4 10 -10z m2788 -21 c7 -12 11 -23 9 -25 -6 -6 -37 25 -37 37 0 16 15 10
28 -12z m-2829 -26 c-10 -11 -14 -11 -20 -1 -10 17 -2 28 17 21 11 -4 12 -8 3
-20z m1 -52 c0 -5 2 -16 5 -24 4 -8 0 -14 -10 -14 -9 0 -15 9 -15 24 0 13 5
23 10 23 6 0 10 -4 10 -9z m140 -316 c0 -8 -4 -15 -9 -15 -5 0 -14 7 -21 15
-10 13 -9 15 9 15 12 0 21 -6 21 -15z m50 -119 c0 -3 -4 -8 -10 -11 -5 -3 -10
-1 -10 4 0 6 5 11 10 11 6 0 10 -2 10 -4z m80 -21 c11 -13 10 -14 -3 -10 -8 4
-18 2 -22 -4 -3 -6 -13 -11 -21 -11 -12 0 -12 3 -2 20 15 24 31 25 48 5z
m4650 -4 c0 -14 -18 -23 -30 -16 -6 4 -8 11 -5 16 8 12 35 12 35 0z m-135 -11
c-3 -5 -12 -10 -18 -10 -7 0 -6 4 3 10 19 12 23 12 15 0z m55 -10 c0 -5 -4
-10 -10 -10 -5 0 -10 5 -10 10 0 6 5 10 10 10 6 0 10 -4 10 -10z m-4585 -35
c0 -17 -4 -24 -13 -20 -8 3 -19 5 -25 5 -7 0 -1 9 13 20 14 11 25 20 25 20 0
0 0 -11 0 -25z m105 5 c0 -11 -4 -20 -10 -20 -5 0 -10 9 -10 20 0 11 5 20 10
20 6 0 10 -9 10 -20z m63 13 c-7 -2 -21 -2 -30 0 -10 3 -4 5 12 5 17 0 24 -2
18 -5z m-119 -19 c23 -9 20 -24 -4 -24 -11 0 -20 7 -20 15 0 17 2 18 24 9z
m4456 -20 c0 -2 -9 -4 -21 -4 -11 0 -18 4 -14 10 5 8 35 3 35 -6z m-320 -4 c0
-5 -4 -10 -9 -10 -6 0 -13 5 -16 10 -3 6 1 10 9 10 9 0 16 -4 16 -10z m-4052
-38 c-10 -2 -18 -8 -18 -13 0 -6 -4 -7 -10 -4 -22 14 -10 32 18 27 19 -4 22
-7 10 -10z m4306 -3 c-6 -11 -24 -2 -24 11 0 5 7 7 15 4 8 -4 12 -10 9 -15z
m-254 -15 c0 -11 -5 -10 -20 3 -11 10 -20 18 -20 19 0 1 9 0 20 -3 11 -3 20
-12 20 -19z m37 20 c-3 -3 -12 -4 -19 -1 -8 3 -5 6 6 6 11 1 17 -2 13 -5z
m-157 -21 c0 -10 -4 -14 -8 -8 -4 6 -11 13 -16 18 -5 4 -2 7 7 7 10 0 17 -8
17 -17z m-3963 -19 c-3 -3 -12 -4 -19 -1 -8 3 -5 6 6 6 11 1 17 -2 13 -5z
m270 0 c-3 -3 -12 -4 -19 -1 -8 3 -5 6 6 6 11 1 17 -2 13 -5z m3971 -2 c13 -1
21 -5 19 -9 -7 -10 -117 -3 -117 7 0 7 16 7 98 2z m-3871 -34 c-3 -8 -6 -5 -6
6 -1 11 2 17 5 13 3 -3 4 -12 1 -19z m3680 0 c-3 -8 -6 -5 -6 6 -1 11 2 17 5
13 3 -3 4 -12 1 -19z m83 18 c0 -3 -4 -8 -10 -11 -5 -3 -10 -1 -10 4 0 6 5 11
10 11 6 0 10 -2 10 -4z m-4120 -16 c0 -5 -8 -10 -17 -10 -15 0 -16 2 -3 10 19
12 20 12 20 0z m4200 2 c0 -4 -13 -13 -30 -19 -35 -13 -42 3 -7 17 28 11 37
12 37 2z m-4045 -60 c0 -18 -20 -15 -23 4 -3 10 1 15 10 12 7 -3 13 -10 13
-16z m4015 3 c0 -8 -2 -15 -4 -15 -2 0 -6 7 -10 15 -3 8 -1 15 4 15 6 0 10 -7
10 -15z m-3935 -5 c-3 -5 -14 -10 -23 -9 -14 0 -13 2 3 9 27 11 27 11 20 0z
m-75 -70 c0 -5 -4 -10 -10 -10 -5 0 -10 5 -10 10 0 6 5 10 10 10 6 0 10 -4 10
-10z"/>
<path d="M1554 2566 c-3 -8 -4 -29 -2 -48 2 -25 8 -34 24 -36 46 -7 75 66 35
88 -27 14 -51 13 -57 -4z"/>
<path d="M589 4954 c-5 -15 -13 -32 -16 -38 -4 -6 0 -5 9 2 13 10 17 10 21 0
3 -7 6 -3 6 8 1 12 8 24 16 28 22 8 18 26 -5 26 -13 0 -24 -10 -31 -26z"/>
<path d="M640 4950 c0 -5 5 -10 10 -10 6 0 10 5 10 10 0 6 -4 10 -10 10 -5 0
-10 -4 -10 -10z"/>
<path d="M480 4824 c0 -8 5 -12 10 -9 6 4 8 11 5 16 -9 14 -15 11 -15 -7z"/>
<path d="M428 4809 c-10 -6 -18 -17 -18 -25 0 -8 -4 -12 -10 -9 -5 3 -10 2
-10 -2 0 -5 18 -9 40 -10 35 -2 39 0 31 15 -4 9 -10 22 -12 29 -3 8 -9 9 -21
2z"/>
<path d="M545 4800 c-3 -5 -1 -10 4 -10 6 0 11 5 11 10 0 6 -2 10 -4 10 -3 0
-8 -4 -11 -10z"/>
<path d="M480 4781 c0 -5 9 -7 20 -4 11 3 20 7 20 9 0 2 -9 4 -20 4 -11 0 -20
-4 -20 -9z"/>
<path d="M420 4739 c0 -5 5 -7 10 -4 6 3 10 8 10 11 0 2 -4 4 -10 4 -5 0 -10
-5 -10 -11z"/>
<path d="M3700 4710 c0 -5 7 -10 15 -10 8 0 15 5 15 10 0 6 -7 10 -15 10 -8 0
-15 -4 -15 -10z"/>
<path d="M346 4691 c-3 -5 1 -12 10 -15 22 -8 25 -4 9 11 -8 7 -16 9 -19 4z"/>
<path d="M3783 4615 c-9 -10 -6 -15 14 -24 25 -11 43 -7 43 10 0 5 -9 9 -19 9
-11 0 -21 4 -23 9 -1 5 -8 3 -15 -4z"/>
<path d="M340 4600 c0 -5 5 -10 10 -10 6 0 10 5 10 10 0 6 -4 10 -10 10 -5 0
-10 -4 -10 -10z"/>
<path d="M293 4565 c-21 -24 -14 -40 7 -17 11 12 20 24 20 27 0 10 -15 4 -27
-10z"/>
<path d="M462 4558 c-7 -7 -12 -16 -12 -21 0 -5 7 -1 16 8 9 9 14 18 12 20 -2
3 -10 -1 -16 -7z"/>
<path d="M3776 4515 c-4 -14 -11 -23 -16 -20 -12 7 -12 3 -4 -19 5 -13 9 -14
20 -5 11 9 14 9 14 0 0 -7 5 -9 11 -6 6 4 8 13 5 20 -3 8 0 15 6 17 16 6 2 38
-16 38 -7 0 -17 -11 -20 -25z"/>
<path d="M185 4371 c-3 -5 4 -13 16 -16 28 -9 33 -2 9 13 -11 6 -21 8 -25 3z"/>
<path d="M275 4350 c3 -5 13 -10 21 -10 8 0 14 5 14 10 0 6 -9 10 -21 10 -11
0 -17 -4 -14 -10z"/>
<path d="M177 4333 c-15 -14 -5 -21 28 -20 37 1 46 11 19 21 -20 8 -39 8 -47
-1z"/>
<path d="M207 4269 c4 -13 8 -18 11 -10 2 7 -1 18 -6 23 -8 8 -9 4 -5 -13z"/>
<path d="M157 4221 c-4 -17 -3 -21 5 -13 5 5 8 16 6 23 -3 8 -7 3 -11 -10z"/>
<path d="M230 4230 c0 -5 5 -10 11 -10 5 0 7 5 4 10 -3 6 -8 10 -11 10 -2 0
-4 -4 -4 -10z"/>
<path d="M240 4189 c0 -5 5 -7 10 -4 6 3 10 8 10 11 0 2 -4 4 -10 4 -5 0 -10
-5 -10 -11z"/>
<path d="M130 4160 c0 -5 7 -7 15 -4 8 4 15 8 15 10 0 2 -7 4 -15 4 -8 0 -15
-4 -15 -10z"/>
<path d="M90 3900 c0 -6 6 -13 14 -16 8 -3 12 -13 9 -24 -3 -10 1 -21 7 -25 9
-5 10 -1 5 14 -3 12 -3 21 2 20 23 -4 23 3 0 21 -28 22 -37 25 -37 10z"/>
<path d="M66 3803 c5 -5 12 -12 16 -18 4 -6 8 -2 8 8 0 9 -7 17 -17 17 -9 0
-12 -3 -7 -7z"/>
<path d="M71 3703 c-7 -8 -10 -17 -7 -20 9 -9 29 13 25 25 -2 6 -10 3 -18 -5z"/>
<path d="M31 3533 c-1 -18 4 -33 9 -33 12 0 12 17 0 45 -7 17 -9 15 -9 -12z"/>
<path d="M30 3471 c0 -5 5 -13 10 -16 6 -3 10 -2 10 4 0 5 -4 13 -10 16 -5 3
-10 2 -10 -4z"/>
<path d="M32 3280 c0 -14 2 -19 5 -12 2 6 2 18 0 25 -3 6 -5 1 -5 -13z"/>
<path d="M30 3104 c0 -8 5 -12 10 -9 6 3 10 10 10 16 0 5 -4 9 -10 9 -5 0 -10
-7 -10 -16z"/>
<path d="M30 1800 c0 -5 5 -10 11 -10 5 0 7 5 4 10 -3 6 -8 10 -11 10 -2 0 -4
-4 -4 -10z"/>
<path d="M60 1785 c0 -14 2 -25 4 -25 2 0 6 11 8 25 3 14 1 25 -3 25 -5 0 -9
-11 -9 -25z"/>
<path d="M80 1600 c0 -5 5 -10 11 -10 5 0 7 5 4 10 -3 6 -8 10 -11 10 -2 0 -4
-4 -4 -10z"/>
<path d="M42 1560 c0 -19 2 -27 5 -17 2 9 2 25 0 35 -3 9 -5 1 -5 -18z"/>
<path d="M55 1521 c-3 -2 -2 -7 0 -11 6 -10 45 -1 45 11 0 8 -37 8 -45 0z"/>
<path d="M161 1511 c-10 -17 -9 -18 14 -7 28 12 33 26 10 26 -8 0 -19 -9 -24
-19z"/>
<path d="M112 1471 c13 -22 28 -28 28 -11 0 5 -9 14 -20 20 -19 10 -20 10 -8
-9z"/>
<path d="M240 1429 c0 -5 5 -7 10 -4 6 3 10 8 10 11 0 2 -4 4 -10 4 -5 0 -10
-5 -10 -11z"/>
<path d="M120 1345 c0 -8 5 -15 10 -15 6 0 10 7 10 15 0 8 -4 15 -10 15 -5 0
-10 -7 -10 -15z"/>
<path d="M90 1269 c0 -5 5 -7 10 -4 6 3 10 8 10 11 0 2 -4 4 -10 4 -5 0 -10
-5 -10 -11z"/>
<path d="M906 1213 c-6 -14 -5 -15 5 -6 7 7 10 15 7 18 -3 3 -9 -2 -12 -12z"/>
<path d="M180 1173 c0 -8 13 -13 30 -13 20 0 30 -5 30 -15 0 -8 7 -15 15 -15
18 0 20 36 3 47 -20 13 -78 10 -78 -4z"/>
<path d="M886 1135 c-9 -26 -7 -32 5 -12 6 10 9 21 6 23 -2 3 -7 -2 -11 -11z"/>
<path d="M4970 1080 c-12 -8 -11 -10 8 -10 12 0 22 5 22 10 0 13 -11 13 -30 0z"/>
<path d="M420 1039 c0 -5 5 -7 10 -4 6 3 10 8 10 11 0 2 -4 4 -10 4 -5 0 -10
-5 -10 -11z"/>
<path d="M4980 1030 c0 -11 5 -20 10 -20 6 0 10 9 10 20 0 11 -4 20 -10 20 -5
0 -10 -9 -10 -20z"/>
<path d="M385 1020 c-3 -5 -1 -10 4 -10 6 0 11 5 11 10 0 6 -2 10 -4 10 -3 0
-8 -4 -11 -10z"/>
<path d="M4810 1026 c0 -2 9 -6 20 -9 11 -3 18 -1 14 4 -5 9 -34 13 -34 5z"/>
<path d="M240 1000 c0 -5 7 -10 16 -10 8 0 12 5 9 10 -3 6 -10 10 -16 10 -5 0
-9 -4 -9 -10z"/>
<path d="M4425 1000 c3 -5 8 -10 11 -10 2 0 4 5 4 10 0 6 -5 10 -11 10 -5 0
-7 -4 -4 -10z"/>
<path d="M4760 1000 c-23 -8 -23 -8 8 -9 32 -1 43 -15 20 -24 -10 -4 -10 -6
-1 -6 19 -1 27 20 12 33 -9 8 -23 10 -39 6z"/>
<path d="M4880 1000 c0 -5 7 -10 15 -10 8 0 15 5 15 10 0 6 -7 10 -15 10 -8 0
-15 -4 -15 -10z"/>
<path d="M690 989 c0 -5 5 -7 10 -4 6 3 10 8 10 11 0 2 -4 4 -10 4 -5 0 -10
-5 -10 -11z"/>
<path d="M815 980 c3 -5 8 -10 11 -10 2 0 4 5 4 10 0 6 -5 10 -11 10 -5 0 -7
-4 -4 -10z"/>
<path d="M4983 953 c-18 -7 -16 -23 2 -23 8 0 15 7 15 15 0 8 -1 15 -2 14 -2
0 -9 -3 -15 -6z"/>
<path d="M390 920 c-11 -7 -6 -10 20 -10 26 0 31 3 20 10 -8 5 -17 10 -20 10
-3 0 -12 -5 -20 -10z"/>
<path d="M4415 920 c3 -6 19 -10 36 -10 19 0 29 -5 29 -15 0 -13 4 -14 23 -4
l22 12 -25 7 c-59 16 -91 19 -85 10z"/>
<path d="M471 904 c0 -11 3 -14 6 -6 3 7 2 16 -1 19 -3 4 -6 -2 -5 -13z"/>
<path d="M4304 899 c-10 -17 11 -33 32 -21 16 9 16 10 -4 21 -15 8 -23 8 -28
0z"/>
<path d="M4376 881 c-14 -5 -16 -10 -7 -15 6 -4 18 -2 26 4 8 6 19 9 24 6 5
-4 12 -2 16 4 7 12 -30 12 -59 1z"/>
<path d="M636 825 c-3 -9 -6 -24 -5 -33 0 -9 5 -4 10 12 9 32 6 48 -5 21z"/>
<path d="M4670 830 c0 -5 5 -10 10 -10 6 0 10 5 10 10 0 6 -4 10 -10 10 -5 0
-10 -4 -10 -10z"/>
<path d="M558 794 c-5 -4 -8 -16 -8 -28 0 -14 3 -17 11 -9 6 6 9 19 7 28 -1 9
-6 13 -10 9z"/>
<path d="M660 780 c0 -5 5 -10 10 -10 6 0 10 5 10 10 0 6 -4 10 -10 10 -5 0
-10 -4 -10 -10z"/>
</g>
</svg>
